<?xml version="1.0"?>
<svg width="384" height="512" xmlns="http://www.w3.org/2000/svg" xmlns:svg="http://www.w3.org/2000/svg">
 <!--! Font Awesome Pro 6.4.2 by @fontawesome - https://fontawesome.com License - https://fontawesome.com/license (Commercial License) Copyright 2023 Fonticons, Inc. -->
 <g class="layer">
  <title>Layer 1</title>
  <path d="m67,256l19.74,-214.64c1.39,-15.06 10.81,-26.36 22.03,-26.36l116.79,0c10.39,0 18.77,11.39 18.77,25.51c0,3.01 -0.42,6.12 -1.18,8.94l-32.07,116.17l96.49,0c13.99,0 25.42,15.44 25.42,34.55c0,6.97 -1.52,13.74 -4.43,19.49l-133.14,264.54c-4.09,8.1 -10.81,12.9 -17.94,12.9l-2.01,0c-10.88,0 -19.74,-12.05 -19.74,-26.83c0,-2.17 0.21,-4.33 0.62,-6.5l32.56,-177.65l-99.75,0c-12.26,0 -22.17,-13.46 -22.17,-30.13z" fill="#d30a0a" id="svg_1" stroke="#000000" stroke-width="25"/>
 </g>
</svg>